<svg width="130" height="22" viewBox="0 0 130 22" fill="none" xmlns="http://www.w3.org/2000/svg">
<path d="M15.3631 13.0055C15.0129 12.2817 14.5226 11.6513 13.9155 11.1609C13.6587 10.9508 13.3785 10.764 13.0984 10.6473L12.2578 10.227L13.075 9.80675C13.5887 9.52657 14.0556 9.12965 14.4526 8.63934C15.1297 7.7988 15.4799 6.74813 15.4799 5.51068C15.4799 3.96969 14.9662 2.70889 13.9155 1.72826C12.8882 0.747637 11.464 0.257324 9.66617 0.257324H1.63438C1.09737 0.257324 0.700447 0.397414 0.420268 0.677592C0.140089 0.934423 0 1.33134 0 1.86835V19.2861C0 19.8231 0.140089 20.2201 0.420268 20.4769C0.700447 20.7571 1.12072 20.8972 1.63438 20.8972H9.923C11.7675 20.8972 13.2384 20.3835 14.2891 19.3795C15.3398 18.3756 15.8768 17.0214 15.8768 15.3403C15.9001 14.5231 15.7134 13.7526 15.3631 13.0055ZM2.96523 2.91902H9.10581C10.1331 2.91902 10.927 3.1992 11.5107 3.78291C12.0944 4.36661 12.3746 5.09041 12.3746 6.00099C12.3746 6.88822 12.0944 7.63537 11.5107 8.19572C10.927 8.75608 10.1331 9.03626 9.10581 9.03626H2.96523V2.91902ZM11.8142 17.3716C11.1838 17.9553 10.3433 18.2588 9.2459 18.2588H2.94188V11.7213H9.2459C10.3666 11.7213 11.2072 12.0248 11.8376 12.6552C12.4446 13.2623 12.7715 14.0561 12.7715 14.9667C12.7715 15.9707 12.468 16.7645 11.8142 17.3716Z" fill="#2e5bff"/>
<path d="M50.3391 21.2002C52.0902 21.2002 53.5611 20.92 54.7285 20.3597C55.8726 19.7993 56.7365 19.0522 57.2735 18.1182C57.8105 17.1843 58.0907 16.157 58.0907 15.0363C58.0907 13.6821 57.7405 12.608 57.0634 11.7909C56.3863 10.9737 55.5457 10.3666 54.5884 9.9697C53.6312 9.57277 52.3704 9.15251 50.806 8.75559C49.732 8.49876 48.8448 8.24193 48.2144 8.00844C47.584 7.77496 47.047 7.47143 46.6267 7.09786C46.2064 6.72429 45.9963 6.21063 45.9963 5.62692C45.9963 4.76304 46.3699 4.03924 47.117 3.50223C47.8642 2.96523 48.8681 2.68505 50.1289 2.68505C51.0162 2.68505 51.9034 2.82514 52.7439 3.08197C53.6078 3.3388 54.4017 3.78241 55.1021 4.34277C55.3356 4.50621 55.6158 4.5996 55.9193 4.5996C56.2929 4.5996 56.6197 4.45951 56.9233 4.17933C57.2035 3.89915 57.3435 3.57228 57.3435 3.15201C57.3435 2.6617 57.1334 2.26478 56.7365 2.0313C55.7559 1.3542 54.7519 0.840536 53.7479 0.513661C52.7673 0.163438 51.6232 0 50.4091 0C48.9382 0 47.6307 0.256831 46.4866 0.747143C45.3659 1.23746 44.4787 1.9379 43.8483 2.82514C43.2179 3.68902 42.9143 4.71634 42.9143 5.83706C42.9143 7.12121 43.2646 8.14853 43.9183 8.94237C44.5954 9.71286 45.3892 10.2966 46.3232 10.6701C47.2571 11.0437 48.4946 11.4406 50.0122 11.8376C51.1329 12.1177 52.0435 12.3979 52.6972 12.6314C53.351 12.8882 53.9114 13.2151 54.355 13.6354C54.7986 14.0556 55.0087 14.616 55.0087 15.3164C55.0087 16.1803 54.6351 16.9508 53.888 17.5812C53.1409 18.2116 51.9968 18.5385 50.4792 18.5385C48.4946 18.5385 46.6267 17.8614 44.9923 16.5539C44.7355 16.3671 44.432 16.2504 44.1051 16.2504C43.7315 16.2504 43.3813 16.3905 43.1011 16.6706C42.7976 16.9508 42.6575 17.2777 42.6575 17.698C42.6575 18.1416 42.8443 18.5151 43.2412 18.842C45.0857 20.4064 47.4906 21.2002 50.3391 21.2002Z" fill="#2e5bff"/>
<path d="M65.0248 0C64.6045 0 64.231 0.140089 63.9274 0.443616C63.6239 0.747144 63.4838 1.09737 63.4838 1.49429V19.6592C63.4838 20.0561 63.6239 20.4064 63.9274 20.7099C64.231 21.0134 64.5812 21.1535 65.0248 21.1535C65.4217 21.1535 65.772 21.0134 66.0755 20.7099C66.379 20.4064 66.5191 20.0561 66.5191 19.6592V1.51764C66.5191 1.12072 66.379 0.770492 66.0755 0.466965C65.772 0.163438 65.4451 0 65.0248 0Z" fill="#2e5bff"/>
<path d="M79.6876 21.1768C81.4387 21.1768 82.9097 20.8967 84.0771 20.3363C85.2211 19.776 86.085 19.0288 86.622 18.0949C87.159 17.161 87.4392 16.1336 87.4392 15.0129C87.4392 13.6821 87.089 12.5847 86.4119 11.7675C85.7348 10.9503 84.8943 10.3433 83.937 9.94635C82.9797 9.54943 81.7189 9.12916 80.1779 8.73224C79.1039 8.47541 78.2167 8.21858 77.5863 7.9851C76.9559 7.75161 76.4189 7.44809 75.9986 7.07451C75.5783 6.70094 75.3682 6.18728 75.3682 5.60358C75.3682 4.73969 75.7418 4.0159 76.4889 3.47889C77.236 2.94188 78.24 2.6617 79.5008 2.6617C80.3881 2.6617 81.2753 2.80179 82.1158 3.05862C82.9564 3.31545 83.7736 3.75907 84.474 4.31942C84.7075 4.48286 84.9877 4.57625 85.2912 4.57625C85.6648 4.57625 85.9916 4.43616 86.2952 4.15599C86.5753 3.87581 86.7154 3.54893 86.7154 3.12866C86.7154 2.63835 86.5053 2.24143 86.1084 2.00795C85.1277 1.3075 84.1238 0.817188 83.1198 0.490313C82.1158 0.163438 80.9718 0 79.7577 0C78.2867 0 76.9792 0.256831 75.8352 0.747144C74.7144 1.23746 73.8272 1.9379 73.1968 2.82514C72.5664 3.68902 72.2629 4.71634 72.2629 5.83706C72.2629 7.12121 72.6131 8.14853 73.2668 8.91903C73.9439 9.68952 74.7378 10.2732 75.6717 10.6468C76.6056 11.0204 77.8431 11.4173 79.3607 11.7909C80.4815 12.071 81.392 12.3512 82.0458 12.5847C82.6995 12.8415 83.2599 13.1684 83.7035 13.5887C84.1471 14.0089 84.3573 14.5693 84.3573 15.2697C84.3573 16.1336 83.9837 16.9041 83.2365 17.5345C82.4894 18.1649 81.3453 18.4918 79.8277 18.4918C77.8431 18.4918 75.9752 17.8147 74.3409 16.5072C74.084 16.3204 73.7805 16.2037 73.4536 16.2037C73.0567 16.2037 72.7298 16.3438 72.4497 16.6239C72.1461 16.9041 72.006 17.231 72.006 17.6513C72.006 18.0949 72.1928 18.4685 72.5897 18.7953C74.4576 20.383 76.8391 21.1768 79.6876 21.1768Z" fill="#2e5bff"/>
<path d="M104.04 7.58838C103.619 7.58838 103.246 7.72847 102.942 8.032C102.639 8.33552 102.499 8.68575 102.499 9.08267V19.6828C102.499 20.0797 102.639 20.4299 102.942 20.7334C103.246 21.037 103.596 21.177 104.04 21.177C104.437 21.177 104.787 21.037 105.09 20.7334C105.394 20.4299 105.534 20.0797 105.534 19.6828V9.10601C105.534 8.70909 105.394 8.35887 105.09 8.05534C104.81 7.72847 104.46 7.58838 104.04 7.58838Z" fill="#2e5bff"/>
<path d="M104.04 0.256958C103.619 0.256958 103.246 0.397047 102.942 0.700574C102.639 1.0041 102.499 1.35433 102.499 1.75125V2.28825C102.499 2.68517 102.639 3.0354 102.942 3.33892C103.246 3.64245 103.596 3.78254 104.04 3.78254C104.437 3.78254 104.787 3.64245 105.09 3.33892C105.394 3.0354 105.534 2.68517 105.534 2.28825V1.77459C105.534 1.37767 105.394 1.02745 105.09 0.723923C104.81 0.397047 104.46 0.256958 104.04 0.256958Z" fill="#2e5bff"/>
<path d="M38.7581 19.1926L31.8004 1.68141C31.6136 1.19109 31.2867 0.794173 30.8431 0.490646C30.3995 0.187119 29.9092 0.0236816 29.3955 0.0236816C28.8818 0.0236816 28.3448 0.187119 27.9012 0.490646C27.4576 0.794173 27.1541 1.19109 26.9673 1.65806L20.0328 19.2159C19.9628 19.4261 19.9161 19.6129 19.9161 19.7296C19.9161 20.1265 20.0562 20.4534 20.3364 20.7569C20.8267 21.2472 21.5738 21.3173 22.1575 20.9204C22.4144 20.7569 22.5778 20.5468 22.6712 20.2899L24.0954 16.5075H34.6488L36.0497 20.2666C36.1431 20.5468 36.3066 20.7569 36.5634 20.9204C36.8202 21.0838 37.0771 21.1772 37.3806 21.1772C37.7775 21.1772 38.1044 21.0371 38.4079 20.7569C38.6881 20.4767 38.8282 20.1265 38.8282 19.7296C38.8749 19.5662 38.8282 19.3794 38.7581 19.1926ZM25.0527 14.0326L29.3955 2.31181L33.7616 14.0326H25.0527Z" fill="#2e5bff"/>
<path d="M121.854 19.7993C121.854 20.4063 121.363 20.8733 120.78 20.8733H112.514C111.907 20.8733 111.44 20.383 111.44 19.7993C111.44 19.1922 111.931 18.7253 112.514 18.7253H120.78C121.363 18.7253 121.854 19.1922 121.854 19.7993ZM112.491 9.47935C111.884 9.47935 111.417 9.96967 111.417 10.5534C111.417 11.1604 111.907 11.6274 112.491 11.6274H115.433C116.04 11.6274 116.507 11.1371 116.507 10.5534C116.507 9.94632 116.017 9.47935 115.433 9.47935H112.491ZM112.491 2.42819H117.464C118.071 2.42819 118.538 1.93788 118.538 1.35417C118.538 0.747116 118.048 0.280151 117.464 0.280151H112.491C111.884 0.280151 111.417 0.770464 111.417 1.35417C111.417 1.93788 111.884 2.42819 112.491 2.42819ZM111.417 5.95377C111.417 6.56083 111.907 7.02779 112.491 7.02779H119.449C120.056 7.02779 120.523 6.53748 120.523 5.95377C120.523 5.34672 120.033 4.87975 119.449 4.87975H112.491C111.884 4.87975 111.417 5.34672 111.417 5.95377ZM121.9 0.513634C121.784 0.490285 121.667 0.466937 121.55 0.443589C121.48 0.420241 121.41 0.420241 121.34 0.420241C121.13 0.420241 120.92 0.490285 120.733 0.607027C120.476 0.770464 120.313 1.02729 120.266 1.30747C120.219 1.58765 120.266 1.89118 120.429 2.14801C120.593 2.40484 120.85 2.56828 121.13 2.61497C121.223 2.63832 121.317 2.66167 121.41 2.68502C125.076 3.5489 127.644 6.81766 127.644 10.6468C127.644 12.9816 126.663 15.1997 124.936 16.7407C124.866 16.7874 124.819 16.8574 124.749 16.9041C124.515 17.0909 124.375 17.3711 124.352 17.6512C124.329 17.9548 124.422 18.2349 124.609 18.4684C124.819 18.7253 125.146 18.842 125.473 18.842C125.73 18.842 125.986 18.7486 126.173 18.5852C126.243 18.5151 126.313 18.4684 126.407 18.3984C128.601 16.4371 129.862 13.612 129.862 10.6468C129.839 5.76699 126.57 1.611 121.9 0.513634ZM123.582 6.51413C123.371 6.30399 123.091 6.18725 122.811 6.18725C122.507 6.18725 122.227 6.30399 122.041 6.51413C121.597 6.9344 121.597 7.63484 122.017 8.07846C122.671 8.73221 123.021 9.61944 123.021 10.5534C123.021 11.4873 122.671 12.3745 122.017 13.0283C121.387 13.682 120.546 14.0323 119.659 14.0323H112.561C111.954 14.0323 111.44 14.5226 111.44 15.1296C111.44 15.7367 111.931 16.227 112.561 16.227H119.659C121.177 16.227 122.578 15.6433 123.628 14.5693C124.679 13.4953 125.263 12.071 125.263 10.5534C125.216 9.03574 124.632 7.6115 123.582 6.51413Z" fill="url(#paint0_linear)"/>
<defs>
<linearGradient id="paint0_linear" x1="111.522" y1="10.5662" x2="129.722" y2="10.5662" gradientUnits="userSpaceOnUse">
<stop stop-color="#2e5bff" stop-opacity="0"/>
<stop offset="0.759" stop-color="#2e5bff"/>
<stop offset="1" stop-color="#2e5bff"/>
</linearGradient>
</defs>
</svg>
