<svg xmlns="http://www.w3.org/2000/svg" xmlns:xlink="http://www.w3.org/1999/xlink" viewBox="0 0 96.862 94.291">

  <g >
    <path id="ic_account_balance_wallet_24px-2" data-name="ic_account_balance_wallet_24px" d="M49.291,41.575v2.572a5.159,5.159,0,0,1-5.143,5.143h-36A5.142,5.142,0,0,1,3,44.147v-36A5.142,5.142,0,0,1,8.143,3h36a5.159,5.159,0,0,1,5.143,5.143v2.572H26.145A5.142,5.142,0,0,0,21,15.858V36.432a5.142,5.142,0,0,0,5.143,5.143ZM26.145,36.432H51.862V15.858H26.145ZM36.432,30a3.858,3.858,0,1,1,3.858-3.858A3.852,3.852,0,0,1,36.432,30Z" />
  </g>
</svg>
