<svg xmlns="http://www.w3.org/2000/svg" xmlns:xlink="http://www.w3.org/1999/xlink"  viewBox="0 0 101 119.706">
  <g >
    <path id="ic_rowing_24px-2" data-name="ic_rowing_24px" d="M18.029,43.088,4,57.118l4.676,4.676L19.588,50.882h6.235ZM38.294,1a6.235,6.235,0,1,0,6.235,6.235A6.254,6.254,0,0,0,38.294,1ZM57,63.384l-9.353,9.322-9.322-9.384V58.676L16.19,36.572a17.663,17.663,0,0,1-2.837.218V30.056A20.925,20.925,0,0,0,27.912,23.7l4.365-4.832a6.688,6.688,0,0,1,2.151-1.559,6.938,6.938,0,0,1,2.993-.717h.094a7.072,7.072,0,0,1,7.015,7.046V41.561a9.349,9.349,0,0,1-2.868,6.734L30.5,37.134V30.056a30.235,30.235,0,0,1-7.139,4.334L42.971,54h4.676Z" />
  </g>
</svg>
