<svg xmlns="http://www.w3.org/2000/svg" width="260.57" height="38.253" viewBox="0 0 260.57 38.253">
  <g id="login-logo" transform="translate(-120.027 -231.176)">
    <path id="Path_1430" data-name="Path 1430" d="M193.662,250.134a2.563,2.563,0,0,1-.021.4,3.5,3.5,0,0,1-.524,1.266c-3.467,5.927-8.35,10.28-13.252,14.965-3.788,3.62-7.835,3.529-11.651-.171-3.332-3.23-6.636-6.495-9.825-9.865-1.31-1.385-2.171-1.478-3.518-.053-3.075,3.252-6.279,6.384-9.47,9.526-4.35,4.284-8.4,4.263-12.732-.043q-4.851-4.819-9.653-9.689c-3.995-4.075-3.987-8.279.038-12.393q4.868-4.975,9.834-9.854c4.125-4.067,8.165-4.068,12.375.032,3.266,3.181,6.505,6.394,9.655,9.69,1.228,1.286,2.043,1.412,3.337.044,3.131-3.313,6.394-6.5,9.647-9.7,4.194-4.12,8.175-4.166,12.367-.091,2.614,2.542,5.357,4.959,7.826,7.648C189.635,243.531,193.589,247.452,193.662,250.134ZM174.126,234c-.021,0-.042,0-.062,0-1.123.014-2.774,1.7-3.6,2.358-3.744,3-7.014,6.707-10.338,10.158-2.536,2.632-2.563,4.87-.065,7.471q5.154,5.365,10.528,10.518c2.465,2.363,4.636,2.312,7.04-.041q5.4-5.289,10.694-10.694c2.243-2.291,2.286-4.606.1-6.851-3.577-3.667-7.193-7.3-10.886-10.849C176.907,235.471,175.041,234.058,174.126,234Zm-35.093.165c-.022,0-.044,0-.065,0a1.822,1.822,0,0,0-.778.244c-5.21,2.615-9.526,8.392-13.5,12.541a4.451,4.451,0,0,0-.09,6.579q5.463,5.743,11.195,11.229c2.156,2.06,4.369,2,6.5-.056q5.617-5.423,11.053-11.031c2.317-2.392,2.3-4.4-.05-6.815q-3.425-3.526-6.924-6.977c-2.048-2.016-4-4.332-6.682-5.518A1.927,1.927,0,0,0,139.033,234.169Z" fill="#121a50"/>
    <g id="Group_211" data-name="Group 211">
      <path id="Path_1431" data-name="Path 1431" d="M221.742,249.776c.634,1.673,1.526,3.048,1.623,4.476.24,3.529-1.68,5.758-5.258,6.081-2.906.263-5.852.1-8.781.1-1.715,0-1.712-1.24-1.563-2.409.454-3.552.975-7.095,1.478-10.64.069-.483.2-.957.281-1.438.96-5.716.959-5.716,6.894-5.681.57,0,1.143-.015,1.71.027,2.113.155,4.522.053,5.393,2.479a5.848,5.848,0,0,1-1.442,6.532A1.626,1.626,0,0,0,221.742,249.776Zm-7.433,7.006a3.062,3.062,0,0,0,1.389.084c1.678-.279,3.16-1.182,3.031-3.032-.15-2.15-4.008-3.378-5.383-1.669a3.049,3.049,0,0,0-.55,1.636,3.156,3.156,0,0,0,.474,2.3A2.116,2.116,0,0,0,214.309,256.782Zm1.549-13.119a1.714,1.714,0,0,0-1.041.131,1.648,1.648,0,0,0-.632,1.118,8.918,8.918,0,0,0-.215,1.849,1.64,1.64,0,0,0,.367,1.242,1.8,1.8,0,0,0,1.228.331,6.174,6.174,0,0,0,2.285-.243,2.443,2.443,0,0,0,1.31-3.33C218.513,243.715,216.931,243.764,215.858,243.663Z" fill="#121a50"/>
      <path id="Path_1432" data-name="Path 1432" d="M309.517,247.87a31.928,31.928,0,0,1-1.107,5.6,10.58,10.58,0,0,1-1.961,4.663c-2.617,2.964-9.893,3.825-12.592.531a7.816,7.816,0,0,1-1.774-4.829,34.42,34.42,0,0,1,1.62-9.039c1.266-3.864,5.589-5.4,10.725-4.292a5.991,5.991,0,0,1,4.63,3.913A8.676,8.676,0,0,1,309.517,247.87Zm-12.733,4.723a10.63,10.63,0,0,0,.053,1.846,2.8,2.8,0,0,0,.437,1.331,2.326,2.326,0,0,0,1.1.765,3.906,3.906,0,0,0,3.463-.412c2.392-1.6,2.355-5.943,2.6-8.489.168-1.723-.2-3.343-2.364-3.593-2.04-.234-3.547.568-4.092,2.616A29.972,29.972,0,0,0,296.784,252.593Z" fill="#121a50"/>
      <path id="Path_1433" data-name="Path 1433" d="M239.9,253.25c-.239-4.164,1.177-9.3,4.729-11.745,3.364-2.314,10.7-2.231,12.173,2.437a10.856,10.856,0,0,1,.236,4.049,36.969,36.969,0,0,1-.808,6.008,8.558,8.558,0,0,1-9.6,6.794,7.62,7.62,0,0,1-4.933-2.487,8.168,8.168,0,0,1-1.755-4.566C239.923,253.579,239.911,253.415,239.9,253.25Zm4.921-1.01c-.015.259-.026.5-.034.732a4.467,4.467,0,0,0,.514,2.638,3.231,3.231,0,0,0,4.375.57,6.289,6.289,0,0,0,2.361-4.156c.471-2.475,1.752-7.213-1.752-7.95C245.914,243.154,245.018,248.847,244.822,252.24Z" fill="#121a50"/>
      <path id="Path_1434" data-name="Path 1434" d="M280.507,251.748c-.3,2.055-.689,4.1-.876,6.167-.206,2.269-1.641,2.625-3.43,2.351-2.057-.316-1.334-1.929-1.183-3.1.614-4.762,1.387-9.505,1.96-14.272.263-2.188,1.455-2.715,3.358-2.444,2.062.293,1.465,1.7,1.278,2.985-.214,1.465-.347,2.943-.515,4.415l.9.392a61.928,61.928,0,0,0,4.254-5.631c1.495-2.5,3.5-2.458,6.4-1.849-.678,1.125-1.114,2.008-1.7,2.78-.913,1.212-1.891,2.372-2.822,3.57-.792,1.02-1.95,2.2-1.886,3.586a4.6,4.6,0,0,0,.515,1.724c1.084,2.286,2.86,4.475,2.612,7.155a.555.555,0,0,1-.116.341.568.568,0,0,1-.248.126,5.316,5.316,0,0,1-1.935.321,2.285,2.285,0,0,1-1.908-1.325c-.971-1.879-1.852-3.8-2.807-5.693-.308-.609-.724-1.162-1.091-1.74Z" fill="#121a50"/>
      <path id="Path_1435" data-name="Path 1435" d="M373.688,260.43c-7.507.14-8.4-.787-7.708-7.8.263-2.668.649-5.328,1.094-7.972.406-2.411,1.761-4.1,4.333-4.208,1.7-.07,9.152-.953,9.19,1.728a1.82,1.82,0,0,1-.779,1.443c-1.491,1.1-4.212.536-5.93.549-1.76.014-2.488,1.048-2.472,2.658.019,1.849,1.473,1.321,2.519,1.383.81.048,1.626.019,2.44,0,1.218-.025,2.373.033,2.314,1.709-.057,1.612-1.2,1.7-2.414,1.691s-2.442.038-3.661,0c-2.194-.078-2.143,1.493-2.279,2.98-.166,1.822.992,1.94,2.337,1.912,1.876-.038,4.325-.573,5.659,1.122a1.007,1.007,0,0,1,.241.493,1.034,1.034,0,0,1-.176.613C377.322,260.6,375.509,260.333,373.688,260.43Z" fill="#121a50"/>
      <path id="Path_1436" data-name="Path 1436" d="M318.258,255.572c1.6-4.132,3.239-8.253,4.8-12.4.691-1.839,1.574-3.168,3.88-2.785,1.347.223,1.71.918,1.236,2.031-1.361,3.191-2.716,6.386-4.1,9.568-.681,1.565-1.349,3.139-2.07,4.687-.5,1.075-.876,2.574-1.9,3.278a3.864,3.864,0,0,1-2.445.453,5.89,5.89,0,0,1-2.436-.569c-2.182-1.17-2.039-5.176-2.369-7.3-.483-3.108-.911-6.224-1.351-9.338-.181-1.276-.505-2.713,1.6-2.807,1.725-.077,2.733.362,2.865,2.365.219,3.329.682,6.643,1.063,9.96.107.934.286,1.859.432,2.788Z" fill="#121a50"/>
      <path id="Path_1437" data-name="Path 1437" d="M258.924,252.458a19.4,19.4,0,0,1,.584-4.29,13.234,13.234,0,0,1,2.343-5.426c2.447-3,6.954-2.709,10.387-2.166a2.78,2.78,0,0,1,1.923,1.517.665.665,0,0,1,.1.3.645.645,0,0,1-.142.368,3.775,3.775,0,0,1-2.84,1.347c-1.794.16-3.8-.125-5.346,1.02-1.641,1.212-2.937,8.161-1.811,9.9a3.673,3.673,0,0,0,2.314,1.382c1.429.218,2.94-.106,4.372.106,2.332.348,1.98,2.332.481,3.338a8.016,8.016,0,0,1-5.916,1.132,8.112,8.112,0,0,1-5.811-4.844A9.677,9.677,0,0,1,258.924,252.458Z" fill="#121a50"/>
      <path id="Path_1438" data-name="Path 1438" d="M233.24,260.442c-.546,0-.708,0-.871,0-6.045.039-7.171-1.33-6.2-7.345.543-3.369,1.085-6.749,1.384-10.145.178-2.022,1.032-2.713,2.95-2.548,2.021.174,1.753,1.527,1.58,2.848-.455,3.465-.865,6.938-1.416,10.388-.327,2.052.379,2.92,2.452,2.773,1.052-.074,2.115.026,3.17-.022,1.273-.058,2.257.424,1.953,1.751a3.228,3.228,0,0,1-1.759,2.024A11.1,11.1,0,0,1,233.24,260.442Z" fill="#121a50"/>
      <path id="Path_1439" data-name="Path 1439" d="M343.488,260.6a19.09,19.09,0,0,1-2.937-.1,6.437,6.437,0,0,1-2.274-.59c-2.47-1.278-1.828-4.567-1.566-6.811.4-3.471,1.006-6.919,1.446-10.386.281-2.207,1.654-2.6,3.486-2.243,1.9.367,1.223,1.8,1.064,2.923-.488,3.462-1.005,6.92-1.576,10.369-.314,1.9.344,2.768,2.32,2.658a22.935,22.935,0,0,1,2.81-.1,3.216,3.216,0,0,1,2.045.786,1.735,1.735,0,0,1,.388,2.038,2.583,2.583,0,0,1-1.747.987A19.109,19.109,0,0,1,343.488,260.6Z" fill="#121a50"/>
      <path id="Path_1440" data-name="Path 1440" d="M358.164,260.49a19.2,19.2,0,0,1-2.937-.1,6.469,6.469,0,0,1-2.275-.59c-2.469-1.278-1.828-4.567-1.566-6.812.4-3.47,1.006-6.918,1.447-10.385.281-2.207,1.654-2.6,3.486-2.244,1.9.367,1.223,1.8,1.064,2.924-.488,3.462-1.006,6.92-1.576,10.369-.314,1.9.344,2.768,2.32,2.658a22.742,22.742,0,0,1,2.81-.1,3.216,3.216,0,0,1,2.045.786,1.735,1.735,0,0,1,.388,2.038,2.583,2.583,0,0,1-1.747.987A19.109,19.109,0,0,1,358.164,260.49Z" fill="#121a50"/>
      <path id="Path_1441" data-name="Path 1441" d="M334.928,242.593c-.854,5.88-1.624,10.864-2.281,15.864-.246,1.867-1.48,1.845-2.833,1.842-1.645,0-1.84-1.059-1.667-2.323q1.065-7.79,2.175-15.572a2.794,2.794,0,0,1,.6-1.621,2.36,2.36,0,0,1,2.628-.152C333.917,240.857,335,242.118,334.928,242.593Z" fill="#121a50"/>
    </g>
  </g>
</svg>
